<svg xmlns="http://www.w3.org/2000/svg" xmlns:xlink="http://www.w3.org/1999/xlink" id="Capa_1" x="0px" y="0px" viewBox="0 0 209.4 79.9" style="enable-background:new 0 0 209.4 79.9;" xml:space="preserve"><style type="text/css">	.st0{fill:#BC955C;}	.st1{fill:#9F2241;}	.st2{fill:none;stroke:#BC955C;stroke-width:1.5;stroke-miterlimit:10;}</style><path class="st0" d="M6.6,56.7c-0.3-0.1-0.6-0.2-0.7-0.3l0.3-0.7c0.2,0.1,0.4,0.2,0.6,0.3c0.2,0.1,0.5,0.1,0.7,0.1 c0.3,0,0.5,0,0.6-0.1c0.1-0.1,0.2-0.2,0.2-0.3c0-0.1,0-0.2-0.1-0.2c-0.1-0.1-0.2-0.1-0.3-0.2c-0.1,0-0.3-0.1-0.5-0.1 c-0.3-0.1-0.6-0.2-0.8-0.2c-0.2-0.1-0.4-0.2-0.5-0.4C6,54.3,6,54.1,6,53.8c0-0.2,0.1-0.5,0.2-0.7c0.1-0.2,0.3-0.4,0.6-0.5 c0.3-0.1,0.6-0.2,1-0.2c0.3,0,0.5,0,0.8,0.1c0.3,0.1,0.5,0.2,0.7,0.3l-0.3,0.7c-0.4-0.2-0.8-0.3-1.2-0.3c-0.3,0-0.5,0-0.6,0.1 c-0.1,0.1-0.2,0.2-0.2,0.3c0,0.1,0.1,0.2,0.2,0.3c0.2,0.1,0.4,0.1,0.7,0.2c0.3,0.1,0.6,0.2,0.8,0.2c0.2,0.1,0.4,0.2,0.5,0.4 c0.1,0.2,0.2,0.4,0.2,0.7c0,0.2-0.1,0.5-0.2,0.7c-0.1,0.2-0.3,0.4-0.6,0.5c-0.3,0.1-0.6,0.2-1,0.2C7.2,56.9,6.9,56.8,6.6,56.7"></path><path class="st1" d="M8.4,42.1c0.1-0.5,0.2-3.9,0.2-5.3v-5.1c0-1.8,0-4.7-0.2-5c-0.3-0.3-1.6-0.7-2.5-0.9l0.3-1.4h8.6l0.3,1.4 l-2.6,0.7c-0.1,0.5-0.2,3.9-0.2,5.3v1.6l9.8,0.1v-1.9c0-1.8,0-4.7-0.2-5c-0.3-0.3-1.6-0.7-2.5-0.9l0.3-1.4h8.6l0.3,1.4L26,26.5 c-0.1,0.5-0.2,3.9-0.2,5.3v5.1c0,1.8,0,4.7,0.2,5c0.3,0.3,1.6,0.7,2.5,0.9l-0.3,1.4h-8.6l-0.3-1.4l2.6-0.7c0.1-0.5,0.2-3.9,0.2-5.3 v-1.3l-9.8,0.1v1.3c0,1.8,0,4.7,0.2,5c0.3,0.3,1.6,0.7,2.5,0.9l-0.3,1.4H6.1l-0.3-1.4L8.4,42.1z"></path><path class="st1" d="M38.8,44.3h-7.9l-0.3-1.4l2.3-0.7c1.9-4.7,3.9-10,5.7-15l0.8-2.8c1.4-0.2,3.5-0.3,4.8-0.3 c0.2,0.9,0.6,1.9,1.1,3.2c1.9,5.2,4.1,11.2,5.6,15l2.3,0.7l-0.3,1.4h-8.7l-0.3-1.4l2.8-0.7c-0.5-1.3-1-2.8-1.6-4.5l-7.7,0.1 c-0.5,1.5-1,3-1.5,4.3l2.9,0.7L38.8,44.3z M44.6,35.6c-1-2.8-2.1-5.9-3.3-9c-1,2.9-2,5.9-3,8.9L44.6,35.6z"></path><path class="st1" d="M67.7,41.4c0.2-0.8,0.5-2,0.9-3.6c0.5,0,2.1,0,2.5,0.1c0.1,1.1,0.1,3,0.1,4.1l-0.4,0.8c-1.6,1.1-4.2,2-7.1,2 c-6.1,0-10-3.9-10-10.2c0-6.4,4.6-10.7,10.5-10.7c2.6,0,4.8,0.7,6.7,1.7l0.4,0.8c-0.2,1.5-0.6,3.5-0.9,4.9c-0.5,0-1.8,0-2.4-0.1 c-0.3-1.7-0.6-3.3-0.7-4.1c-0.8-0.5-2-0.7-3.3-0.7c-1.7,0-3.1,0.4-4.1,1.1c-1.3,1.6-2.2,3.9-2.2,6.8c0,4.8,2.3,7.9,6.4,7.9 C65.8,42.1,67,41.8,67.7,41.4"></path><path class="st1" d="M76.7,42.1c0.1-0.5,0.2-3.9,0.2-5.3v-5.1c0-1.8,0-4.7-0.2-5c-0.3-0.3-1.6-0.7-2.5-0.9l0.3-1.4H83l0.3,1.4 l-2.6,0.7c-0.1,0.5-0.2,3.9-0.2,5.3v5.1c0,1.8,0,4.7,0.2,5c0.3,0.3,1.6,0.7,2.5,0.9L83,44.3h-8.6l-0.3-1.4L76.7,42.1z"></path><path class="st1" d="M88.7,42.1c0.1-0.5,0.2-3.9,0.2-5.3v-5.1c0-1.8,0-4.7-0.3-5c-0.3-0.3-1.6-0.7-2.5-0.9l0.3-1.4h7.5 c3.4,0,6.2-0.1,8.5-0.2c0.2,0.3,0.5,0.8,0.7,1c-0.2,1.4-0.6,3.6-0.8,4.9c-0.5,0-1.7,0-2.3-0.1l-0.6-3.5c-0.9-0.1-2.3-0.1-3.5-0.1 c-1.1,0-2.2,0-3.1,0.1c-0.1,0.6-0.2,4.1-0.2,5.5v1.7l6.4-0.3l0.5,0.6c-0.1,0.5-0.3,1.4-0.3,1.9l-6.5-0.2v1.5c0,1.8,0,4.5,0.3,5 c0.3,0.3,2.1,0.4,3.4,0.4c1.3,0,2.6-0.1,3.5-0.2l0.8-3.5c0.6,0,1.9,0,2.4,0.1c0.1,1.8,0.1,3.7,0,5.5H86.4l-0.3-1.4L88.7,42.1z"></path><path class="st1" d="M122.1,44.4l-2.6-3.4c-2.6-3.5-5.9-7.6-8.5-10.9c0.1,5.1,0.2,11.2,0.5,11.7c0.3,0.4,2,0.7,3.3,1l-0.3,1.4h-8.2 l-0.3-1.4l2.5-0.7c0.1-1,0.2-3.6,0.2-7.7c0-4.9-0.1-7.3-0.3-7.7c-0.5-0.3-1.6-0.7-2.5-1l0.3-1.4c1.8,0,3.9-0.1,5.5-0.1 c2,3.3,6.8,9.3,10.9,14.4c0-5.9-0.2-11.4-0.5-11.9c-0.2-0.4-1.9-0.7-3-1l0.3-1.4h8.1l0.3,1.4l-2.6,0.8c-0.2,2.2-0.4,9-0.4,17.6 L122.1,44.4z"></path><path class="st1" d="M132.9,42.1c0.1-0.5,0.2-3.9,0.2-5.3v-5.1c0-1.8,0-4.7-0.2-5c-0.3-0.3-1.6-0.7-2.5-0.9l0.3-1.4h3.9 c1,0,4.1-0.2,5.5-0.2c7.9,0,10.7,4.7,10.7,10.1c0,6.9-4.5,10.3-9.9,10.3c-1.9,0-4.3-0.2-6-0.2h-4.1l-0.3-1.4L132.9,42.1z M137,41.9 c0.4,0.4,4,0.9,6.1,0.1c2.4-1.3,3.7-3.9,3.7-7.8c0-3.3-1.3-5.8-2.6-6.9c-1.2-0.7-2.6-1.1-4.5-1.1c-1,0-1.9,0.1-2.8,0.2 c-0.1,0.6-0.2,3.9-0.2,5.3v5.1C136.8,38.6,136.8,41.4,137,41.9"></path><path class="st1" d="M159,44.3h-7.9l-0.3-1.4l2.3-0.7c1.9-4.7,3.9-10,5.7-15l0.8-2.8c1.4-0.2,3.5-0.3,4.8-0.3 c0.2,0.9,0.6,1.9,1.1,3.2c1.9,5.2,4.1,11.2,5.6,15l2.3,0.7l-0.3,1.4h-8.7l-0.3-1.4l2.8-0.7c-0.5-1.3-1-2.8-1.6-4.5l-7.7,0.1 c-0.5,1.5-1,3-1.5,4.3l2.9,0.7L159,44.3z M164.8,35.6c-1-2.8-2.1-5.9-3.3-9c-1,2.9-2,5.9-3,8.9L164.8,35.6z"></path><polygon class="st0" points="14,56 14,56.8 10.7,56.8 10.7,52.6 13.9,52.6 13.9,53.4 11.7,53.4 11.7,54.3 13.6,54.3 13.6,55  11.7,55 11.7,56 "></polygon><path class="st0" d="M16.2,56.6c-0.3-0.2-0.6-0.4-0.8-0.8c-0.2-0.3-0.3-0.7-0.3-1.1c0-0.4,0.1-0.8,0.3-1.1c0.2-0.3,0.5-0.6,0.8-0.8 c0.3-0.2,0.7-0.3,1.2-0.3c0.4,0,0.7,0.1,1,0.2c0.3,0.1,0.5,0.3,0.7,0.5l-0.6,0.6c-0.3-0.3-0.6-0.5-1-0.5c-0.3,0-0.5,0.1-0.7,0.2 c-0.2,0.1-0.4,0.3-0.5,0.5c-0.1,0.2-0.2,0.4-0.2,0.7c0,0.3,0.1,0.5,0.2,0.7c0.1,0.2,0.3,0.4,0.5,0.5c0.2,0.1,0.4,0.2,0.7,0.2 c0.4,0,0.8-0.2,1-0.5l0.6,0.6c-0.2,0.2-0.4,0.4-0.7,0.6c-0.3,0.1-0.6,0.2-1,0.2C17,56.9,16.6,56.8,16.2,56.6"></path><path class="st0" d="M23.1,56.8l-0.8-1.2h-0.1h-0.8v1.2h-1v-4.2h1.8c0.4,0,0.7,0.1,1,0.2c0.3,0.1,0.5,0.3,0.6,0.5 c0.1,0.2,0.2,0.5,0.2,0.8c0,0.3-0.1,0.6-0.2,0.8c-0.1,0.2-0.4,0.4-0.6,0.5l0.9,1.3H23.1z M22.8,53.6c-0.2-0.1-0.4-0.2-0.7-0.2h-0.8 v1.5h0.8c0.3,0,0.5-0.1,0.7-0.2c0.2-0.1,0.2-0.3,0.2-0.5C23,53.9,23,53.7,22.8,53.6"></path><polygon class="st0" points="28.7,56 28.7,56.8 25.5,56.8 25.5,52.6 28.6,52.6 28.6,53.4 26.4,53.4 26.4,54.3 28.4,54.3 28.4,55  26.4,55 26.4,56 "></polygon><polygon class="st0" points="31.1,53.4 29.8,53.4 29.8,52.6 33.4,52.6 33.4,53.4 32.1,53.4 32.1,56.8 31.1,56.8 "></polygon><path class="st0" d="M36.9,55.9H35l-0.4,0.9h-1l1.9-4.2h1l1.9,4.2h-1L36.9,55.9z M36.6,55.2L36,53.6l-0.7,1.6H36.6z"></path><path class="st0" d="M42.1,56.8l-0.8-1.2h0h-0.8v1.2h-1v-4.2h1.8c0.4,0,0.7,0.1,1,0.2c0.3,0.1,0.5,0.3,0.6,0.5 c0.1,0.2,0.2,0.5,0.2,0.8c0,0.3-0.1,0.6-0.2,0.8c-0.1,0.2-0.4,0.4-0.6,0.5l0.9,1.3H42.1z M41.9,53.6c-0.2-0.1-0.4-0.2-0.7-0.2h-0.8 v1.5h0.8c0.3,0,0.5-0.1,0.7-0.2c0.1-0.1,0.2-0.3,0.2-0.5C42.1,53.9,42,53.7,41.9,53.6"></path><path class="st0" d="M45.3,51.4h1l-1.1,0.9h-0.7L45.3,51.4z M44.6,52.6h1v4.2h-1V52.6z"></path><path class="st0" d="M50,55.9H48l-0.4,0.9h-1l1.9-4.2h1l1.9,4.2h-1L50,55.9z M49.7,55.2L49,53.6l-0.7,1.6H49.7z"></path><path class="st0" d="M54.9,52.6h1.9c0.5,0,0.9,0.1,1.2,0.3c0.4,0.2,0.6,0.4,0.8,0.7c0.2,0.3,0.3,0.7,0.3,1.1c0,0.4-0.1,0.8-0.3,1.1 c-0.2,0.3-0.5,0.6-0.8,0.7c-0.3,0.2-0.7,0.3-1.2,0.3h-1.9V52.6z M56.8,56c0.4,0,0.8-0.1,1-0.3c0.2-0.2,0.4-0.5,0.4-0.9 c0-0.4-0.1-0.7-0.4-0.9c-0.2-0.2-0.6-0.3-1-0.3h-0.9V56H56.8z"></path><polygon class="st0" points="63.8,56 63.8,56.8 60.5,56.8 60.5,52.6 63.7,52.6 63.7,53.4 61.5,53.4 61.5,54.3 63.4,54.3 63.4,55  61.5,55 61.5,56 "></polygon><polygon class="st0" points="71.5,52.6 71.5,56.8 70.5,56.8 70.5,55.1 68.6,55.1 68.6,56.8 67.6,56.8 67.6,52.6 68.6,52.6  68.6,54.3 70.5,54.3 70.5,52.6 "></polygon><path class="st0" d="M75.9,55.9H74l-0.4,0.9h-1l1.9-4.2h1l1.9,4.2h-1L75.9,55.9z M75.6,55.2L75,53.6l-0.7,1.6H75.6z"></path><path class="st0" d="M79.1,56.6c-0.3-0.2-0.6-0.4-0.8-0.8c-0.2-0.3-0.3-0.7-0.3-1.1c0-0.4,0.1-0.8,0.3-1.1c0.2-0.3,0.5-0.6,0.8-0.8 c0.3-0.2,0.7-0.3,1.2-0.3c0.4,0,0.7,0.1,1,0.2c0.3,0.1,0.5,0.3,0.7,0.5l-0.6,0.6c-0.3-0.3-0.6-0.5-1-0.5c-0.3,0-0.5,0.1-0.7,0.2 c-0.2,0.1-0.4,0.3-0.5,0.5C79,54.2,79,54.4,79,54.7c0,0.3,0.1,0.5,0.2,0.7c0.1,0.2,0.3,0.4,0.5,0.5C79.8,56,80,56,80.3,56 c0.4,0,0.8-0.2,1-0.5l0.6,0.6c-0.2,0.2-0.4,0.4-0.7,0.6c-0.3,0.1-0.6,0.2-1,0.2C79.8,56.9,79.4,56.8,79.1,56.6"></path><rect x="83.3" y="52.6" class="st0" width="1" height="4.2"></rect><polygon class="st0" points="89.2,56 89.2,56.8 85.9,56.8 85.9,52.6 89.1,52.6 89.1,53.4 86.9,53.4 86.9,54.3 88.8,54.3 88.8,55  86.9,55 86.9,56 "></polygon><polygon class="st0" points="94.5,52.6 94.5,56.8 93.7,56.8 91.6,54.2 91.6,56.8 90.6,56.8 90.6,52.6 91.4,52.6 93.5,55.1  93.5,52.6 "></polygon><path class="st0" d="M96.2,52.6H98c0.5,0,0.9,0.1,1.2,0.3c0.3,0.2,0.6,0.4,0.8,0.7c0.2,0.3,0.3,0.7,0.3,1.1c0,0.4-0.1,0.8-0.3,1.1 c-0.2,0.3-0.5,0.6-0.8,0.7c-0.4,0.2-0.7,0.3-1.2,0.3h-1.9V52.6z M98,56c0.4,0,0.7-0.1,1-0.3c0.2-0.2,0.4-0.5,0.4-0.9 c0-0.4-0.1-0.7-0.4-0.9c-0.2-0.2-0.6-0.3-1-0.3h-0.9V56H98z"></path><path class="st0" d="M104.3,55.9h-1.9l-0.4,0.9h-1l1.9-4.2h1l1.9,4.2h-1L104.3,55.9z M104,55.2l-0.7-1.6l-0.7,1.6H104z"></path><polygon class="st0" points="111.3,55.3 111.3,56.8 110.3,56.8 110.3,55.3 108.7,52.6 109.7,52.6 110.8,54.5 111.9,52.6 112.9,52.6  "></polygon><path class="st0" d="M117.3,56.6c-0.3-0.2-0.6-0.4-0.8-0.8c-0.2-0.3-0.3-0.7-0.3-1.1c0-0.4,0.1-0.8,0.3-1.1c0.2-0.3,0.5-0.6,0.8-0.8 c0.3-0.2,0.7-0.3,1.2-0.3c0.4,0,0.7,0.1,1,0.2c0.3,0.1,0.5,0.3,0.7,0.5l-0.6,0.6c-0.3-0.3-0.6-0.5-1-0.5c-0.3,0-0.5,0.1-0.7,0.2 c-0.2,0.1-0.4,0.3-0.5,0.5c-0.1,0.2-0.2,0.4-0.2,0.7c0,0.3,0.1,0.5,0.2,0.7c0.1,0.2,0.3,0.4,0.5,0.5c0.2,0.1,0.4,0.2,0.7,0.2 c0.4,0,0.8-0.2,1-0.5l0.6,0.6c-0.2,0.2-0.4,0.4-0.7,0.6c-0.3,0.1-0.6,0.2-1,0.2C118,56.9,117.6,56.8,117.3,56.6"></path><path class="st0" d="M124.1,56.8l-0.8-1.2h0h-0.8v1.2h-1v-4.2h1.8c0.4,0,0.7,0.1,1,0.2c0.3,0.1,0.5,0.3,0.6,0.5 c0.1,0.2,0.2,0.5,0.2,0.8c0,0.3-0.1,0.6-0.2,0.8c-0.1,0.2-0.4,0.4-0.6,0.5l0.9,1.3H124.1z M123.9,53.6c-0.1-0.1-0.4-0.2-0.7-0.2 h-0.8v1.5h0.8c0.3,0,0.5-0.1,0.7-0.2c0.2-0.1,0.2-0.3,0.2-0.5C124.1,53.9,124,53.7,123.9,53.6"></path><path class="st0" d="M129.7,56v0.8h-3.2v-4.2h3.2v0.8h-2.2v0.9h1.9V55h-1.9v1H129.7z M128.4,51.4h1l-1.1,0.9h-0.7L128.4,51.4z"></path><path class="st0" d="M131.2,52.6h1.9c0.5,0,0.9,0.1,1.2,0.3c0.3,0.2,0.6,0.4,0.8,0.7c0.2,0.3,0.3,0.7,0.3,1.1c0,0.4-0.1,0.8-0.3,1.1 c-0.2,0.3-0.5,0.6-0.8,0.7c-0.3,0.2-0.7,0.3-1.2,0.3h-1.9V52.6z M133.1,56c0.4,0,0.7-0.1,1-0.3c0.2-0.2,0.4-0.5,0.4-0.9 c0-0.4-0.1-0.7-0.4-0.9c-0.2-0.2-0.6-0.3-1-0.3h-0.9V56H133.1z"></path><rect x="136.9" y="52.6" class="st0" width="1" height="4.2"></rect><polygon class="st0" points="140.4,53.4 139,53.4 139,52.6 142.7,52.6 142.7,53.4 141.3,53.4 141.3,56.8 140.4,56.8 "></polygon><path class="st0" d="M144.7,56.6c-0.3-0.2-0.6-0.4-0.8-0.8c-0.2-0.3-0.3-0.7-0.3-1.1c0-0.4,0.1-0.8,0.3-1.1c0.2-0.3,0.5-0.6,0.8-0.8 c0.3-0.2,0.7-0.3,1.2-0.3c0.4,0,0.8,0.1,1.2,0.3c0.3,0.2,0.6,0.4,0.8,0.8c0.2,0.3,0.3,0.7,0.3,1.1c0,0.4-0.1,0.8-0.3,1.1 c-0.2,0.3-0.5,0.6-0.8,0.8c-0.3,0.2-0.7,0.3-1.2,0.3C145.4,56.9,145,56.8,144.7,56.6 M146.5,55.9c0.2-0.1,0.4-0.3,0.5-0.5 c0.1-0.2,0.2-0.4,0.2-0.7c0-0.3-0.1-0.5-0.2-0.7c-0.1-0.2-0.3-0.4-0.5-0.5c-0.2-0.1-0.4-0.2-0.7-0.2c-0.2,0-0.5,0.1-0.7,0.2 c-0.2,0.1-0.4,0.3-0.5,0.5c-0.1,0.2-0.2,0.4-0.2,0.7c0,0.3,0.1,0.5,0.2,0.7c0.1,0.2,0.3,0.4,0.5,0.5c0.2,0.1,0.4,0.2,0.7,0.2 C146.1,56,146.3,56,146.5,55.9"></path><path class="st0" d="M154.7,52.8c0.3,0.1,0.5,0.3,0.6,0.5c0.1,0.2,0.2,0.5,0.2,0.8c0,0.3-0.1,0.6-0.2,0.8c-0.1,0.2-0.4,0.4-0.6,0.5 c-0.3,0.1-0.6,0.2-1,0.2h-0.8v1.1h-1v-4.2h1.8C154.1,52.6,154.5,52.7,154.7,52.8 M154.4,54.7c0.1-0.1,0.2-0.3,0.2-0.5 c0-0.2-0.1-0.4-0.2-0.5c-0.2-0.1-0.4-0.2-0.7-0.2h-0.8v1.4h0.8C154,54.8,154.2,54.8,154.4,54.7"></path><path class="st0" d="M157.4,56.4c-0.3-0.3-0.5-0.8-0.5-1.4v-2.3h1v2.3c0,0.7,0.3,1.1,0.9,1.1c0.3,0,0.5-0.1,0.7-0.3 c0.2-0.2,0.2-0.5,0.2-0.9v-2.3h1v2.3c0,0.6-0.2,1.1-0.5,1.4c-0.3,0.3-0.8,0.5-1.4,0.5C158.2,56.9,157.7,56.7,157.4,56.4 M159,51.4h1 l-1.1,0.9h-0.7L159,51.4z"></path><path class="st0" d="M165.9,55c0.1,0.2,0.2,0.4,0.2,0.7c0,0.4-0.1,0.6-0.4,0.8c-0.3,0.2-0.7,0.3-1.2,0.3h-2.2v-4.2h2 c0.5,0,0.9,0.1,1.2,0.3c0.3,0.2,0.4,0.5,0.4,0.8c0,0.2-0.1,0.4-0.1,0.5c-0.1,0.2-0.2,0.3-0.4,0.4C165.6,54.7,165.8,54.8,165.9,55  M163.3,53.3v1h1c0.2,0,0.4,0,0.5-0.1c0.1-0.1,0.2-0.2,0.2-0.4c0-0.2-0.1-0.3-0.2-0.4c-0.1-0.1-0.3-0.1-0.5-0.1H163.3z M165,55.9 c0.1-0.1,0.2-0.2,0.2-0.4c0-0.3-0.3-0.5-0.8-0.5h-1.1v1h1.1C164.6,56.1,164.8,56,165,55.9"></path><polygon class="st0" points="167.6,52.6 168.5,52.6 168.5,56 170.6,56 170.6,56.8 167.6,56.8 "></polygon><rect x="171.8" y="52.6" class="st0" width="1" height="4.2"></rect><path class="st0" d="M175.3,56.6c-0.3-0.2-0.6-0.4-0.8-0.8c-0.2-0.3-0.3-0.7-0.3-1.1c0-0.4,0.1-0.8,0.3-1.1c0.2-0.3,0.5-0.6,0.8-0.8 c0.3-0.2,0.7-0.3,1.2-0.3c0.4,0,0.7,0.1,1,0.2c0.3,0.1,0.5,0.3,0.7,0.5l-0.6,0.6c-0.3-0.3-0.6-0.5-1-0.5c-0.3,0-0.5,0.1-0.7,0.2 c-0.2,0.1-0.4,0.3-0.5,0.5c-0.1,0.2-0.2,0.4-0.2,0.7c0,0.3,0.1,0.5,0.2,0.7c0.1,0.2,0.3,0.4,0.5,0.5c0.2,0.1,0.4,0.2,0.7,0.2 c0.4,0,0.8-0.2,1-0.5l0.6,0.6c-0.2,0.2-0.4,0.4-0.7,0.6c-0.3,0.1-0.6,0.2-1,0.2C176.1,56.9,175.7,56.8,175.3,56.6"></path><path class="st0" d="M180.3,56.6c-0.3-0.2-0.6-0.4-0.8-0.8c-0.2-0.3-0.3-0.7-0.3-1.1c0-0.4,0.1-0.8,0.3-1.1c0.2-0.3,0.5-0.6,0.8-0.8 c0.3-0.2,0.7-0.3,1.2-0.3c0.4,0,0.8,0.1,1.2,0.3c0.3,0.2,0.6,0.4,0.8,0.8c0.2,0.3,0.3,0.7,0.3,1.1c0,0.4-0.1,0.8-0.3,1.1 c-0.2,0.3-0.5,0.6-0.8,0.8c-0.3,0.2-0.7,0.3-1.2,0.3C181,56.9,180.6,56.8,180.3,56.6 M182.1,55.9c0.2-0.1,0.4-0.3,0.5-0.5 c0.1-0.2,0.2-0.4,0.2-0.7c0-0.3-0.1-0.5-0.2-0.7c-0.1-0.2-0.3-0.4-0.5-0.5c-0.2-0.1-0.4-0.2-0.7-0.2c-0.2,0-0.5,0.1-0.7,0.2 c-0.2,0.1-0.4,0.3-0.5,0.5c-0.1,0.2-0.2,0.4-0.2,0.7c0,0.3,0.1,0.5,0.2,0.7c0.1,0.2,0.3,0.4,0.5,0.5c0.2,0.1,0.4,0.2,0.7,0.2 C181.7,56,181.9,56,182.1,55.9"></path><line class="st2" x1="206" y1="17" x2="206" y2="63.9"></line></svg>